<svg width="181" height="181" viewBox="0 0 181 181" fill="none" xmlns="http://www.w3.org/2000/svg">
<path d="M75.5625 103.645C78.0386 103.645 80.4132 104.629 82.164 106.379C83.9149 108.13 84.8985 110.505 84.8985 112.981C84.8985 115.457 83.9149 117.832 82.164 119.582C80.4132 121.333 78.0386 122.317 75.5625 122.317C73.0865 122.317 70.7118 121.333 68.961 119.582C67.2102 117.832 66.2266 115.457 66.2266 112.981C66.2266 110.505 67.2102 108.13 68.961 106.379C70.7118 104.629 73.0865 103.645 75.5625 103.645ZM75.5625 30.7949C90.9631 30.7949 103.242 43.432 103.242 59.923C103.242 68.6764 100.045 73.4862 92.3821 79.6106L88.2445 82.8222C84.5698 85.7201 83.33 87.3034 83.0761 89.5142L82.9118 91.8444C82.5793 93.681 81.5712 95.3264 80.0861 96.4568C78.601 97.5872 76.7464 98.1206 74.8877 97.952C73.0289 97.7834 71.3007 96.9249 70.0432 95.5457C68.7858 94.1665 68.0903 92.3664 68.0938 90.5001C68.0938 81.9857 71.2306 77.2953 78.789 71.2606L82.9416 68.049C87.2436 64.6134 88.3191 62.9404 88.3191 59.923C88.3191 51.5879 82.613 45.7324 75.5625 45.7324C68.1834 45.7324 62.7312 51.1995 62.8208 59.8483C62.8406 61.8291 62.0728 63.7367 60.6861 65.1514C59.9995 65.8519 59.1816 66.4102 58.2793 66.7946C57.3769 67.179 56.4076 67.3819 55.4268 67.3917C53.4459 67.4116 51.5384 66.6437 50.1237 65.257C48.709 63.8704 47.9031 61.9785 47.8833 59.9977C47.719 42.9988 59.908 30.7949 75.5625 30.7949ZM0.875014 75.5626C0.881106 59.4007 6.12955 43.6769 15.8324 30.7517C25.5353 17.8265 39.1689 8.39743 54.6866 3.88003C70.2043 -0.637362 86.7687 0.000696659 101.893 5.69841C117.017 11.3961 129.885 21.846 138.565 35.4793C147.245 49.1126 151.268 65.1936 150.031 81.308C148.794 97.4225 142.363 112.701 131.704 124.849C121.044 136.998 106.732 145.361 90.9152 148.683C75.0985 152.005 58.6309 150.107 43.9846 143.274L9.80764 150.101C8.60284 150.341 7.35748 150.279 6.1819 149.923C5.00633 149.566 3.93684 148.926 3.0682 148.057C2.19956 147.188 1.55859 146.119 1.20208 144.943C0.845575 143.768 0.78454 142.522 1.02439 141.317L7.85083 107.125C3.24941 97.2399 0.868378 86.4666 0.875014 75.5626ZM75.5625 15.8126C65.3351 15.81 55.2783 18.4326 46.3547 23.4295C37.4311 28.4264 29.9396 35.6303 24.5972 44.3514C19.2548 53.0725 16.2404 63.019 15.8426 73.2386C15.4448 83.4582 17.6769 93.6089 22.3253 102.719C23.0924 104.22 23.3293 105.936 22.9975 107.589L17.859 133.266L43.5365 128.128C45.1891 127.796 46.9053 128.033 48.4061 128.8C56.4533 132.9 65.3254 135.123 74.3553 135.301C83.3852 135.479 92.3379 133.608 100.54 129.827C108.743 126.047 115.982 120.457 121.713 113.477C127.444 106.496 131.518 98.3073 133.628 89.5258C135.739 80.7442 135.831 71.5984 133.899 62.776C131.966 53.9536 128.058 45.6841 122.469 38.5893C116.881 31.4945 109.756 25.759 101.632 21.814C93.5073 17.8689 84.5942 15.817 75.5625 15.8126ZM58.5338 163.574C71.8062 174.309 88.367 180.153 105.438 180.125C116.7 180.125 127.396 177.63 137 173.149L171.192 179.976C172.397 180.216 173.643 180.154 174.818 179.798C175.994 179.441 177.063 178.801 177.932 177.932C178.8 177.063 179.441 175.994 179.798 174.818C180.154 173.643 180.215 172.397 179.976 171.192L173.149 137.015C177.63 127.411 180.125 116.7 180.125 105.438C180.15 88.3722 174.306 71.8172 163.574 58.5487C165.713 69.6063 165.749 80.9679 163.679 92.0386C166.829 105.725 165.057 120.084 158.675 132.594C157.908 134.095 157.671 135.811 158.003 137.464L163.141 163.141L137.449 158.003C135.801 157.674 134.09 157.911 132.594 158.675C120.079 165.061 105.715 166.833 92.0237 163.679C80.9529 165.749 69.5913 165.713 58.5338 163.574Z" fill="#C5C5C5"/>
</svg>
