<svg width="139" height="50" viewBox="0 0 139 50" fill="none" xmlns="http://www.w3.org/2000/svg">
<path d="M0 2.16756C0 1.70186 0.185001 1.25523 0.514303 0.925923C0.843605 0.596621 1.29024 0.411621 1.75594 0.411621H3.29414C5.84728 0.411621 7.31524 2.07274 8.16512 3.73035C8.74458 4.86468 10.3375 10.2324 10.6852 11.4335L45.665 10.9613C45.842 10.5481 46.6914 7.54991 47.2286 7.81727C47.7144 8.05905 48.1376 8.41011 48.4649 8.84292C48.7923 9.27573 49.0148 9.7785 49.1152 10.3118C49.2156 10.8451 49.191 11.3943 49.0434 11.9165L43.7896 30.4417C43.3717 31.9114 42.4859 33.2048 41.2665 34.1257C40.0472 35.0465 38.5608 35.5446 37.0328 35.5445H19.1959C17.6552 35.545 16.157 35.0389 14.9322 34.1041C13.7074 33.1693 12.824 31.8578 12.418 30.3715L10.1634 22.101L10.1283 21.9886L6.51102 9.70405L6.15983 8.52055C5.80865 7.30544 5.4996 6.2308 5.03603 5.32825C4.47765 4.23957 3.96491 3.9235 3.29414 3.9235H1.75594C1.29024 3.9235 0.843605 3.7385 0.514303 3.4092C0.185001 3.07989 0 2.63326 0 2.16756ZM13.5137 21.0404L15.807 29.4549C16.0103 30.1977 16.4521 30.8531 17.0645 31.3201C17.6769 31.7872 18.4258 32.04 19.1959 32.0396H37.0363C37.7999 32.0388 38.5425 31.7892 39.1515 31.3285C39.7605 30.8677 40.2027 30.2211 40.4112 29.4865L45.665 10.9613L10.6852 11.4335L13.5137 21.0404ZM24.5937 44.3206C24.5937 45.7178 24.0387 47.0576 23.0508 48.0455C22.0629 49.0335 20.723 49.5885 19.3259 49.5885C17.9288 49.5885 16.5889 49.0335 15.601 48.0455C14.613 47.0576 14.058 45.7178 14.058 44.3206C14.058 42.9235 14.613 41.5836 15.601 40.5957C16.5889 39.6078 17.9288 39.0528 19.3259 39.0528C20.723 39.0528 22.0629 39.6078 23.0508 40.5957C24.0387 41.5836 24.5937 42.9235 24.5937 44.3206ZM21.0818 44.3206C21.0818 43.8549 20.8968 43.4083 20.5675 43.079C20.2382 42.7497 19.7916 42.5647 19.3259 42.5647C18.8602 42.5647 18.4135 42.7497 18.0842 43.079C17.7549 43.4083 17.5699 43.8549 17.5699 44.3206C17.5699 44.7863 17.7549 45.233 18.0842 45.5623C18.4135 45.8916 18.8602 46.0766 19.3259 46.0766C19.7916 46.0766 20.2382 45.8916 20.5675 45.5623C20.8968 45.233 21.0818 44.7863 21.0818 44.3206ZM42.1531 44.3206C42.1531 45.7178 41.5981 47.0576 40.6102 48.0455C39.6223 49.0335 38.2824 49.5885 36.8853 49.5885C35.4881 49.5885 34.1483 49.0335 33.1603 48.0455C32.1724 47.0576 31.6174 45.7178 31.6174 44.3206C31.6174 42.9235 32.1724 41.5836 33.1603 40.5957C34.1483 39.6078 35.4881 39.0528 36.8853 39.0528C38.2824 39.0528 39.6223 39.6078 40.6102 40.5957C41.5981 41.5836 42.1531 42.9235 42.1531 44.3206ZM38.6412 44.3206C38.6412 43.8549 38.4562 43.4083 38.1269 43.079C37.7976 42.7497 37.351 42.5647 36.8853 42.5647C36.4196 42.5647 35.9729 42.7497 35.6436 43.079C35.3143 43.4083 35.1293 43.8549 35.1293 44.3206C35.1293 44.7863 35.3143 45.233 35.6436 45.5623C35.9729 45.8916 36.4196 46.0766 36.8853 46.0766C37.351 46.0766 37.7976 45.8916 38.1269 45.5623C38.4562 45.233 38.6412 44.7863 38.6412 44.3206Z" fill="#476CFF"/>
<rect x="21.6239" y="8.22474" width="4.98534" height="20.8611" rx="2.49267" transform="rotate(15 21.6239 8.22474)" stroke="#476CFF" stroke-width="2"/>
<rect x="20.6699" y="9.51509" width="4.98534" height="20.8611" rx="2.49267" transform="rotate(-15 20.6699 9.51509)" stroke="#476CFF" stroke-width="2"/>
<rect x="30.5146" y="8.22474" width="4.98534" height="20.8611" rx="2.49267" transform="rotate(15 30.5146 8.22474)" stroke="#476CFF" stroke-width="2"/>
<rect x="29.5607" y="9.51509" width="4.98534" height="20.8611" rx="2.49267" transform="rotate(-15 29.5607 9.51509)" stroke="#476CFF" stroke-width="2"/>
<path d="M51.3819 28.4447C51.5959 28.4447 51.8289 28.4259 52.0807 28.3881C52.3451 28.3377 52.5403 28.2748 52.6662 28.1992V26.6882L51.3063 26.8015C50.9538 26.8267 50.6642 26.9023 50.4375 27.0282C50.2109 27.1541 50.0975 27.343 50.0975 27.5948C50.0975 27.8466 50.192 28.0544 50.3808 28.2181C50.5823 28.3692 50.916 28.4447 51.3819 28.4447ZM51.2308 21.022C51.9107 21.022 52.5277 21.0912 53.0817 21.2297C53.6484 21.3683 54.1269 21.5823 54.5172 21.8719C54.9201 22.1489 55.2286 22.5078 55.4427 22.9485C55.6567 23.3766 55.7638 23.8866 55.7638 24.4784V28.7092C55.7638 29.0365 55.6693 29.3073 55.4804 29.5213C55.3042 29.7228 55.0901 29.8991 54.8383 30.0502C54.0198 30.5412 52.8677 30.7868 51.3819 30.7868C50.7145 30.7868 50.1101 30.7238 49.5687 30.5979C49.0398 30.472 48.5802 30.2831 48.1899 30.0313C47.8122 29.7795 47.5163 29.4584 47.3022 29.068C47.1007 28.6777 47 28.2244 47 27.7081C47 26.8393 47.2581 26.172 47.7744 25.7061C48.2906 25.2402 49.0902 24.9506 50.1731 24.8372L52.6473 24.5728V24.4406C52.6473 24.0755 52.4836 23.8173 52.1563 23.6662C51.8415 23.5025 51.3819 23.4207 50.7775 23.4207C50.299 23.4207 49.8331 23.4711 49.3798 23.5718C48.9265 23.6725 48.5173 23.7984 48.1521 23.9495C47.9884 23.8362 47.8499 23.6662 47.7366 23.4396C47.6233 23.2003 47.5666 22.9548 47.5666 22.703C47.5666 22.3756 47.6422 22.1175 47.7933 21.9286C47.957 21.7271 48.2025 21.5571 48.5299 21.4186C48.895 21.2801 49.3232 21.1794 49.8142 21.1164C50.3179 21.0535 50.7901 21.022 51.2308 21.022Z" fill="#476CFF"/>
<path d="M60.9379 30.4657C60.812 30.5035 60.6105 30.5412 60.3335 30.579C60.0691 30.6168 59.792 30.6357 59.5024 30.6357C59.2254 30.6357 58.9736 30.6168 58.7469 30.579C58.5329 30.5412 58.3503 30.4657 58.1992 30.3524C58.0481 30.239 57.9285 30.0879 57.8403 29.8991C57.7648 29.6976 57.727 29.4395 57.727 29.1247V23.4585C57.727 23.1689 57.7774 22.9233 57.8781 22.7219C57.9914 22.5078 58.1488 22.3189 58.3503 22.1552C58.5518 21.9915 58.7973 21.8467 59.0869 21.7208C59.3891 21.5823 59.7102 21.4627 60.0502 21.362C60.3901 21.2612 60.7427 21.1857 61.1079 21.1353C61.473 21.0724 61.8382 21.0409 62.2033 21.0409C62.8077 21.0409 63.2862 21.1605 63.6388 21.3997C63.9913 21.6264 64.1676 22.0041 64.1676 22.533C64.1676 22.7093 64.1424 22.8855 64.0921 23.0618C64.0417 23.2255 63.9788 23.3766 63.9032 23.5151C63.6388 23.5151 63.3681 23.5277 63.091 23.5529C62.814 23.5781 62.5433 23.6159 62.2789 23.6662C62.0145 23.7166 61.7626 23.7733 61.5234 23.8362C61.2967 23.8866 61.1016 23.9495 60.9379 24.0251V30.4657Z" fill="#476CFF"/>
<path d="M74.4638 28.8225C74.4008 29.4143 74.2245 29.8676 73.9349 30.1824C73.6579 30.4972 73.2487 30.6546 72.7072 30.6546C72.3043 30.6546 71.9455 30.5601 71.6307 30.3713C71.3159 30.1698 70.9759 29.8361 70.6107 29.3702L68.7409 27.0282V30.4657C68.6024 30.4909 68.3946 30.5224 68.1176 30.5601C67.8532 30.6105 67.5825 30.6357 67.3054 30.6357C67.0284 30.6357 66.7766 30.6168 66.5499 30.579C66.3359 30.5412 66.1533 30.4657 66.0022 30.3524C65.8511 30.239 65.7315 30.0879 65.6434 29.8991C65.5678 29.6976 65.53 29.4395 65.53 29.1247V18.1889C65.6685 18.1511 65.87 18.1133 66.1344 18.0755C66.4114 18.0252 66.6885 18 66.9655 18C67.2425 18 67.488 18.0189 67.7021 18.0567C67.9287 18.0944 68.1176 18.17 68.2687 18.2833C68.4198 18.3966 68.5331 18.554 68.6087 18.7555C68.6968 18.9444 68.7409 19.1962 68.7409 19.511V24.4973L71.9895 21.1731C72.6443 21.1731 73.1668 21.3179 73.5572 21.6075C73.9601 21.8971 74.1616 22.2623 74.1616 22.703C74.1616 22.8918 74.1301 23.0681 74.0671 23.2318C74.0042 23.3829 73.9034 23.5403 73.7649 23.704C73.639 23.8677 73.469 24.044 73.255 24.2328C73.0535 24.4091 72.8143 24.6169 72.5373 24.8561L71.4418 25.8005L74.4638 28.8225Z" fill="#476CFF"/>
<path d="M80.3987 30.7868C79.6558 30.7868 78.9633 30.686 78.3211 30.4846C77.6915 30.2705 77.1375 29.9557 76.659 29.5402C76.1931 29.1247 75.8217 28.6021 75.5446 27.9726C75.2802 27.343 75.148 26.6064 75.148 25.7627C75.148 24.9317 75.2802 24.2203 75.5446 23.6284C75.8217 23.0241 76.1805 22.533 76.6212 22.1552C77.0619 21.7649 77.5656 21.4816 78.1322 21.3053C78.6988 21.1164 79.278 21.022 79.8699 21.022C80.5372 21.022 81.1416 21.1227 81.683 21.3242C82.2371 21.5257 82.7093 21.8027 83.0996 22.1552C83.5025 22.5078 83.811 22.9296 84.0251 23.4207C84.2517 23.9118 84.3651 24.4469 84.3651 25.0261C84.3651 25.4542 84.2454 25.7816 84.0062 26.0083C83.767 26.2349 83.4333 26.3797 83.0052 26.4427L78.34 27.1415C78.4785 27.557 78.7618 27.8718 79.1899 28.0859C79.618 28.2873 80.1091 28.3881 80.6631 28.3881C81.1794 28.3881 81.6642 28.3251 82.1175 28.1992C82.5833 28.0607 82.9611 27.9033 83.2507 27.727C83.4522 27.8529 83.6222 28.0292 83.7607 28.2559C83.8992 28.4825 83.9684 28.7218 83.9684 28.9736C83.9684 29.5402 83.704 29.962 83.1752 30.239C82.7722 30.4531 82.3189 30.5979 81.8153 30.6735C81.3116 30.749 80.8394 30.7868 80.3987 30.7868ZM79.8699 23.364C79.5677 23.364 79.3032 23.4144 79.0766 23.5151C78.8625 23.6159 78.6862 23.7481 78.5477 23.9118C78.4092 24.0629 78.3022 24.2391 78.2266 24.4406C78.1637 24.6295 78.1259 24.8247 78.1133 25.0261L81.3431 24.4973C81.3053 24.2454 81.1668 23.9936 80.9275 23.7418C80.6883 23.4899 80.3357 23.364 79.8699 23.364Z" fill="#476CFF"/>
<path d="M89.1214 27.3304C89.1214 27.6578 89.2222 27.8907 89.4236 28.0292C89.6377 28.1677 89.9336 28.237 90.3113 28.237C90.5002 28.237 90.6954 28.2244 90.8969 28.1992C91.0983 28.1614 91.2746 28.1174 91.4257 28.067C91.539 28.2055 91.6335 28.3629 91.709 28.5392C91.7972 28.7029 91.8412 28.9043 91.8412 29.1436C91.8412 29.6221 91.6586 30.0124 91.2935 30.3146C90.9409 30.6168 90.3113 30.7679 89.4048 30.7679C88.2967 30.7679 87.4405 30.5161 86.8361 30.0124C86.2443 29.5087 85.9484 28.6903 85.9484 27.557V19.4732C86.0869 19.4354 86.282 19.3977 86.5339 19.3599C86.7983 19.3095 87.0753 19.2843 87.3649 19.2843C87.9189 19.2843 88.3471 19.3851 88.6493 19.5865C88.964 19.7754 89.1214 20.1846 89.1214 20.8142V22.023H91.5957C91.6712 22.1615 91.7405 22.3378 91.8035 22.5519C91.879 22.7533 91.9168 22.98 91.9168 23.2318C91.9168 23.6725 91.816 23.9936 91.6146 24.1951C91.4257 24.3839 91.1676 24.4784 90.8402 24.4784H89.1214V27.3304Z" fill="#476CFF"/>
<path d="M98.0059 24.3462C98.5347 24.3462 98.9377 24.2266 99.2147 23.9873C99.5043 23.7355 99.6491 23.3577 99.6491 22.8541C99.6491 22.3756 99.498 22.0104 99.1958 21.7586C98.9062 21.4942 98.4781 21.362 97.9115 21.362C97.71 21.362 97.54 21.3683 97.4015 21.3808C97.2756 21.3808 97.1434 21.3934 97.0049 21.4186V24.3462H98.0059ZM97.0238 30.409C96.8852 30.4468 96.6649 30.4846 96.3627 30.5224C96.0731 30.5601 95.7835 30.579 95.4939 30.579C95.2043 30.579 94.9461 30.5538 94.7195 30.5035C94.5054 30.4657 94.3229 30.3901 94.1718 30.2768C94.0207 30.1635 93.9073 30.0061 93.8318 29.8046C93.7562 29.6032 93.7185 29.3387 93.7185 29.0114V20.1154C93.7185 19.851 93.7877 19.6495 93.9262 19.511C94.0773 19.3599 94.2788 19.2403 94.5306 19.1521C94.9587 19.001 95.4435 18.894 95.985 18.831C96.539 18.7555 97.093 18.7177 97.647 18.7177C99.3847 18.7177 100.713 19.0892 101.632 19.8321C102.551 20.575 103.011 21.5823 103.011 22.8541C103.011 23.4711 102.91 24.0314 102.709 24.535C102.52 25.0261 102.23 25.4542 101.84 25.8194C101.462 26.172 100.978 26.449 100.386 26.6504C99.8065 26.8393 99.1329 26.9337 98.3648 26.9337H97.0238V30.409Z" fill="#476CFF"/>
<path d="M104.448 21.4375C104.573 21.3997 104.769 21.362 105.033 21.3242C105.31 21.2864 105.593 21.2675 105.883 21.2675C106.16 21.2675 106.406 21.2864 106.62 21.3242C106.846 21.362 107.035 21.4375 107.186 21.5508C107.337 21.6642 107.451 21.8216 107.526 22.023C107.614 22.2119 107.658 22.4637 107.658 22.7785V26.8393C107.658 27.3556 107.784 27.727 108.036 27.9537C108.288 28.1677 108.653 28.2748 109.132 28.2748C109.421 28.2748 109.654 28.2496 109.83 28.1992C110.019 28.1488 110.164 28.0985 110.265 28.0481V21.4375C110.391 21.3997 110.586 21.362 110.85 21.3242C111.127 21.2864 111.411 21.2675 111.7 21.2675C111.977 21.2675 112.223 21.2864 112.437 21.3242C112.664 21.362 112.852 21.4375 113.004 21.5508C113.155 21.6642 113.268 21.8216 113.344 22.023C113.432 22.2119 113.476 22.4637 113.476 22.7785V28.5203C113.476 29.1499 113.211 29.6221 112.682 29.9368C112.242 30.2139 111.713 30.4216 111.096 30.5601C110.492 30.7112 109.83 30.7868 109.113 30.7868C108.433 30.7868 107.803 30.7112 107.224 30.5601C106.657 30.409 106.166 30.1761 105.751 29.8613C105.335 29.5465 105.014 29.1436 104.788 28.6525C104.561 28.1488 104.448 27.5444 104.448 26.8393V21.4375Z" fill="#476CFF"/>
<path d="M118.708 30.4657C118.57 30.4909 118.362 30.5224 118.085 30.5601C117.82 30.6105 117.55 30.6357 117.273 30.6357C116.996 30.6357 116.744 30.6168 116.517 30.579C116.303 30.5412 116.121 30.4657 115.969 30.3524C115.818 30.239 115.699 30.0879 115.611 29.8991C115.535 29.6976 115.497 29.4395 115.497 29.1247V18.17C115.636 18.1448 115.837 18.1133 116.102 18.0755C116.379 18.0252 116.656 18 116.933 18C117.21 18 117.455 18.0189 117.669 18.0567C117.896 18.0944 118.085 18.17 118.236 18.2833C118.387 18.3966 118.5 18.554 118.576 18.7555C118.664 18.9444 118.708 19.1962 118.708 19.511V30.4657Z" fill="#476CFF"/>
<path d="M128.478 27.7459C128.478 28.7029 128.119 29.4521 127.402 29.9935C126.684 30.5349 125.626 30.8057 124.228 30.8057C123.7 30.8057 123.208 30.7679 122.755 30.6923C122.302 30.6168 121.912 30.5035 121.584 30.3524C121.269 30.1887 121.018 29.9872 120.829 29.748C120.652 29.5087 120.564 29.2254 120.564 28.898C120.564 28.5958 120.627 28.344 120.753 28.1425C120.879 27.9285 121.03 27.7522 121.206 27.6137C121.572 27.8152 121.987 27.9977 122.453 28.1614C122.931 28.3125 123.479 28.3881 124.096 28.3881C124.487 28.3881 124.782 28.3314 124.984 28.2181C125.198 28.1048 125.305 27.9537 125.305 27.7648C125.305 27.5885 125.229 27.45 125.078 27.3493C124.927 27.2485 124.675 27.1667 124.323 27.1037L123.756 26.9904C122.661 26.7764 121.842 26.4427 121.301 25.9894C120.772 25.5235 120.508 24.8624 120.508 24.0062C120.508 23.5403 120.608 23.1185 120.81 22.7407C121.011 22.363 121.295 22.0482 121.66 21.7964C122.025 21.5445 122.459 21.3494 122.963 21.2109C123.479 21.0724 124.046 21.0031 124.663 21.0031C125.129 21.0031 125.563 21.0409 125.966 21.1164C126.382 21.1794 126.74 21.2801 127.043 21.4186C127.345 21.5571 127.584 21.7397 127.76 21.9664C127.937 22.1804 128.025 22.4385 128.025 22.7407C128.025 23.0303 127.968 23.2822 127.855 23.4962C127.754 23.6977 127.622 23.8677 127.458 24.0062C127.357 23.9432 127.206 23.8803 127.005 23.8173C126.803 23.7418 126.583 23.6788 126.344 23.6284C126.105 23.5655 125.859 23.5151 125.607 23.4773C125.368 23.4396 125.148 23.4207 124.946 23.4207C124.531 23.4207 124.21 23.4711 123.983 23.5718C123.756 23.6599 123.643 23.8047 123.643 24.0062C123.643 24.1447 123.706 24.258 123.832 24.3462C123.958 24.4343 124.197 24.5162 124.549 24.5917L125.135 24.7239C126.344 25.0009 127.2 25.385 127.704 25.8761C128.22 26.3545 128.478 26.9778 128.478 27.7459Z" fill="#476CFF"/>
<path d="M134.977 30.7868C134.234 30.7868 133.541 30.686 132.899 30.4846C132.269 30.2705 131.715 29.9557 131.237 29.5402C130.771 29.1247 130.4 28.6021 130.123 27.9726C129.858 27.343 129.726 26.6064 129.726 25.7627C129.726 24.9317 129.858 24.2203 130.123 23.6284C130.4 23.0241 130.758 22.533 131.199 22.1552C131.64 21.7649 132.144 21.4816 132.71 21.3053C133.277 21.1164 133.856 21.022 134.448 21.022C135.115 21.022 135.72 21.1227 136.261 21.3242C136.815 21.5257 137.287 21.8027 137.678 22.1552C138.081 22.5078 138.389 22.9296 138.603 23.4207C138.83 23.9118 138.943 24.4469 138.943 25.0261C138.943 25.4542 138.823 25.7816 138.584 26.0083C138.345 26.2349 138.011 26.3797 137.583 26.4427L132.918 27.1415C133.056 27.557 133.34 27.8718 133.768 28.0859C134.196 28.2873 134.687 28.3881 135.241 28.3881C135.757 28.3881 136.242 28.3251 136.695 28.1992C137.161 28.0607 137.539 27.9033 137.829 27.727C138.03 27.8529 138.2 28.0292 138.339 28.2559C138.477 28.4825 138.546 28.7218 138.546 28.9736C138.546 29.5402 138.282 29.962 137.753 30.239C137.35 30.4531 136.897 30.5979 136.393 30.6735C135.89 30.749 135.417 30.7868 134.977 30.7868ZM134.448 23.364C134.146 23.364 133.881 23.4144 133.655 23.5151C133.441 23.6159 133.264 23.7481 133.126 23.9118C132.987 24.0629 132.88 24.2391 132.805 24.4406C132.742 24.6295 132.704 24.8247 132.691 25.0261L135.921 24.4973C135.883 24.2454 135.745 23.9936 135.506 23.7418C135.266 23.4899 134.914 23.364 134.448 23.364Z" fill="#476CFF"/>
</svg>
