<svg width="139" height="50" viewBox="0 0 139 50" fill="none" xmlns="http://www.w3.org/2000/svg">
<path d="M0 1.75594C0 1.29024 0.185001 0.843605 0.514303 0.514302C0.843605 0.185 1.29024 0 1.75594 0H3.29414C5.84728 0 7.31524 1.66112 8.16512 3.31872C8.74458 4.45306 10.3375 9.82081 10.6852 11.0219L45.665 10.5497C45.842 10.1365 46.6914 7.13829 47.2286 7.40565C47.7144 7.64743 48.1376 7.99849 48.4649 8.4313C48.7923 8.8641 49.0148 9.36688 49.1152 9.90016C49.2156 10.4334 49.191 10.9827 49.0434 11.5049L43.7896 30.0301C43.3717 31.4998 42.4859 32.7932 41.2665 33.7141C40.0472 34.6349 38.5608 35.133 37.0328 35.1328H19.1959C17.6552 35.1334 16.157 34.6272 14.9322 33.6925C13.7074 32.7577 12.824 31.4461 12.418 29.9598L10.1634 21.6894L10.1283 21.577L6.51102 9.29243L6.15983 8.10893C5.80865 6.89382 5.4996 5.81918 5.03603 4.91663C4.47765 3.82795 3.96491 3.51188 3.29414 3.51188H1.75594C1.29024 3.51188 0.843605 3.32688 0.514303 2.99758C0.185001 2.66827 0 2.22164 0 1.75594ZM13.5137 20.6288L15.807 29.0432C16.0103 29.7861 16.4521 30.4414 17.0645 30.9085C17.6769 31.3755 18.4258 31.6283 19.1959 31.628H37.0363C37.7999 31.6272 38.5425 31.3775 39.1515 30.9168C39.7605 30.4561 40.2027 29.8095 40.4112 29.0748L45.665 10.5497L10.6852 11.0219L13.5137 20.6288ZM24.5937 43.909C24.5937 45.3061 24.0387 46.646 23.0508 47.6339C22.0629 48.6218 20.723 49.1768 19.3259 49.1768C17.9288 49.1768 16.5889 48.6218 15.601 47.6339C14.613 46.646 14.058 45.3061 14.058 43.909C14.058 42.5119 14.613 41.172 15.601 40.1841C16.5889 39.1962 17.9288 38.6412 19.3259 38.6412C20.723 38.6412 22.0629 39.1962 23.0508 40.1841C24.0387 41.172 24.5937 42.5119 24.5937 43.909ZM21.0818 43.909C21.0818 43.4433 20.8968 42.9967 20.5675 42.6674C20.2382 42.3381 19.7916 42.1531 19.3259 42.1531C18.8602 42.1531 18.4135 42.3381 18.0842 42.6674C17.7549 42.9967 17.5699 43.4433 17.5699 43.909C17.5699 44.3747 17.7549 44.8214 18.0842 45.1507C18.4135 45.48 18.8602 45.665 19.3259 45.665C19.7916 45.665 20.2382 45.48 20.5675 45.1507C20.8968 44.8214 21.0818 44.3747 21.0818 43.909ZM42.1531 43.909C42.1531 45.3061 41.5981 46.646 40.6102 47.6339C39.6223 48.6218 38.2824 49.1768 36.8853 49.1768C35.4881 49.1768 34.1483 48.6218 33.1603 47.6339C32.1724 46.646 31.6174 45.3061 31.6174 43.909C31.6174 42.5119 32.1724 41.172 33.1603 40.1841C34.1483 39.1962 35.4881 38.6412 36.8853 38.6412C38.2824 38.6412 39.6223 39.1962 40.6102 40.1841C41.5981 41.172 42.1531 42.5119 42.1531 43.909ZM38.6412 43.909C38.6412 43.4433 38.4562 42.9967 38.1269 42.6674C37.7976 42.3381 37.351 42.1531 36.8853 42.1531C36.4196 42.1531 35.9729 42.3381 35.6436 42.6674C35.3143 42.9967 35.1293 43.4433 35.1293 43.909C35.1293 44.3747 35.3143 44.8214 35.6436 45.1507C35.9729 45.48 36.4196 45.665 36.8853 45.665C37.351 45.665 37.7976 45.48 38.1269 45.1507C38.4562 44.8214 38.6412 44.3747 38.6412 43.909Z" fill="white"/>
<rect x="21.6239" y="7.81312" width="4.98534" height="20.8611" rx="2.49267" transform="rotate(15 21.6239 7.81312)" stroke="white" stroke-width="2"/>
<rect x="20.6699" y="9.10335" width="4.98534" height="20.8611" rx="2.49267" transform="rotate(-15 20.6699 9.10335)" stroke="white" stroke-width="2"/>
<rect x="30.5146" y="7.81312" width="4.98534" height="20.8611" rx="2.49267" transform="rotate(15 30.5146 7.81312)" stroke="white" stroke-width="2"/>
<rect x="29.5607" y="9.10335" width="4.98534" height="20.8611" rx="2.49267" transform="rotate(-15 29.5607 9.10335)" stroke="white" stroke-width="2"/>
<path d="M51.3819 28.0331C51.5959 28.0331 51.8289 28.0142 52.0807 27.9765C52.3451 27.9261 52.5403 27.8631 52.6662 27.7876V26.2766L51.3063 26.3899C50.9538 26.4151 50.6642 26.4906 50.4375 26.6166C50.2109 26.7425 50.0975 26.9314 50.0975 27.1832C50.0975 27.435 50.192 27.6428 50.3808 27.8065C50.5823 27.9576 50.916 28.0331 51.3819 28.0331ZM51.2308 20.6104C51.9107 20.6104 52.5277 20.6796 53.0817 20.8181C53.6484 20.9566 54.1269 21.1707 54.5172 21.4603C54.9201 21.7373 55.2286 22.0962 55.4427 22.5369C55.6567 22.965 55.7638 23.475 55.7638 24.0668V28.2975C55.7638 28.6249 55.6693 28.8956 55.4804 29.1097C55.3042 29.3112 55.0901 29.4874 54.8383 29.6385C54.0198 30.1296 52.8677 30.3752 51.3819 30.3752C50.7145 30.3752 50.1101 30.3122 49.5687 30.1863C49.0398 30.0604 48.5802 29.8715 48.1899 29.6197C47.8122 29.3678 47.5163 29.0467 47.3022 28.6564C47.1007 28.2661 47 27.8128 47 27.2965C47 26.4277 47.2581 25.7603 47.7744 25.2944C48.2906 24.8286 49.0902 24.5389 50.1731 24.4256L52.6473 24.1612V24.029C52.6473 23.6638 52.4836 23.4057 52.1563 23.2546C51.8415 23.0909 51.3819 23.0091 50.7775 23.0091C50.299 23.0091 49.8331 23.0594 49.3798 23.1602C48.9265 23.2609 48.5173 23.3868 48.1521 23.5379C47.9884 23.4246 47.8499 23.2546 47.7366 23.028C47.6233 22.7887 47.5666 22.5432 47.5666 22.2913C47.5666 21.964 47.6422 21.7058 47.7933 21.517C47.957 21.3155 48.2025 21.1455 48.5299 21.007C48.895 20.8685 49.3232 20.7678 49.8142 20.7048C50.3179 20.6418 50.7901 20.6104 51.2308 20.6104Z" fill="white"/>
<path d="M60.9379 30.0541C60.812 30.0918 60.6105 30.1296 60.3335 30.1674C60.0691 30.2052 59.792 30.2241 59.5024 30.2241C59.2254 30.2241 58.9736 30.2052 58.7469 30.1674C58.5329 30.1296 58.3503 30.0541 58.1992 29.9407C58.0481 29.8274 57.9285 29.6763 57.8403 29.4874C57.7648 29.286 57.727 29.0279 57.727 28.7131V23.0468C57.727 22.7572 57.7774 22.5117 57.8781 22.3102C57.9914 22.0962 58.1488 21.9073 58.3503 21.7436C58.5518 21.5799 58.7973 21.4351 59.0869 21.3092C59.3891 21.1707 59.7102 21.0511 60.0502 20.9503C60.3901 20.8496 60.7427 20.7741 61.1079 20.7237C61.473 20.6607 61.8382 20.6293 62.2033 20.6293C62.8077 20.6293 63.2862 20.7489 63.6388 20.9881C63.9913 21.2148 64.1676 21.5925 64.1676 22.1214C64.1676 22.2976 64.1424 22.4739 64.0921 22.6502C64.0417 22.8139 63.9788 22.965 63.9032 23.1035C63.6388 23.1035 63.3681 23.1161 63.091 23.1413C62.814 23.1665 62.5433 23.2042 62.2789 23.2546C62.0145 23.305 61.7626 23.3616 61.5234 23.4246C61.2967 23.475 61.1016 23.5379 60.9379 23.6135V30.0541Z" fill="white"/>
<path d="M74.4638 28.4109C74.4008 29.0027 74.2245 29.456 73.9349 29.7708C73.6579 30.0856 73.2487 30.2429 72.7072 30.2429C72.3043 30.2429 71.9455 30.1485 71.6307 29.9596C71.3159 29.7582 70.9759 29.4245 70.6107 28.9586L68.7409 26.6166V30.0541C68.6024 30.0793 68.3946 30.1107 68.1176 30.1485C67.8532 30.1989 67.5825 30.2241 67.3054 30.2241C67.0284 30.2241 66.7766 30.2052 66.5499 30.1674C66.3359 30.1296 66.1533 30.0541 66.0022 29.9407C65.8511 29.8274 65.7315 29.6763 65.6434 29.4874C65.5678 29.286 65.53 29.0279 65.53 28.7131V17.7773C65.6685 17.7395 65.87 17.7017 66.1344 17.6639C66.4114 17.6136 66.6885 17.5884 66.9655 17.5884C67.2425 17.5884 67.488 17.6073 67.7021 17.645C67.9287 17.6828 68.1176 17.7584 68.2687 17.8717C68.4198 17.985 68.5331 18.1424 68.6087 18.3439C68.6968 18.5327 68.7409 18.7846 68.7409 19.0994V24.0856L71.9895 20.7615C72.6443 20.7615 73.1668 20.9063 73.5572 21.1959C73.9601 21.4855 74.1616 21.8506 74.1616 22.2913C74.1616 22.4802 74.1301 22.6565 74.0671 22.8202C74.0042 22.9713 73.9034 23.1287 73.7649 23.2924C73.639 23.4561 73.469 23.6324 73.255 23.8212C73.0535 23.9975 72.8143 24.2053 72.5373 24.4445L71.4418 25.3889L74.4638 28.4109Z" fill="white"/>
<path d="M80.3987 30.3752C79.6558 30.3752 78.9633 30.2744 78.3211 30.073C77.6915 29.8589 77.1375 29.5441 76.659 29.1286C76.1931 28.7131 75.8217 28.1905 75.5446 27.5609C75.2802 26.9314 75.148 26.1947 75.148 25.3511C75.148 24.5201 75.2802 23.8086 75.5446 23.2168C75.8217 22.6124 76.1805 22.1214 76.6212 21.7436C77.0619 21.3533 77.5656 21.07 78.1322 20.8937C78.6988 20.7048 79.278 20.6104 79.8699 20.6104C80.5372 20.6104 81.1416 20.7111 81.683 20.9126C82.2371 21.114 82.7093 21.391 83.0996 21.7436C83.5025 22.0962 83.811 22.518 84.0251 23.0091C84.2517 23.5001 84.3651 24.0353 84.3651 24.6145C84.3651 25.0426 84.2454 25.37 84.0062 25.5966C83.767 25.8233 83.4333 25.9681 83.0052 26.0311L78.34 26.7299C78.4785 27.1454 78.7618 27.4602 79.1899 27.6743C79.618 27.8757 80.1091 27.9765 80.6631 27.9765C81.1794 27.9765 81.6642 27.9135 82.1175 27.7876C82.5833 27.6491 82.9611 27.4917 83.2507 27.3154C83.4522 27.4413 83.6222 27.6176 83.7607 27.8442C83.8992 28.0709 83.9684 28.3101 83.9684 28.562C83.9684 29.1286 83.704 29.5504 83.1752 29.8274C82.7722 30.0415 82.3189 30.1863 81.8153 30.2618C81.3116 30.3374 80.8394 30.3752 80.3987 30.3752ZM79.8699 22.9524C79.5677 22.9524 79.3032 23.0028 79.0766 23.1035C78.8625 23.2042 78.6862 23.3364 78.5477 23.5001C78.4092 23.6512 78.3022 23.8275 78.2266 24.029C78.1637 24.2179 78.1259 24.413 78.1133 24.6145L81.3431 24.0856C81.3053 23.8338 81.1668 23.582 80.9275 23.3302C80.6883 23.0783 80.3357 22.9524 79.8699 22.9524Z" fill="white"/>
<path d="M89.1214 26.9188C89.1214 27.2461 89.2222 27.4791 89.4236 27.6176C89.6377 27.7561 89.9336 27.8254 90.3113 27.8254C90.5002 27.8254 90.6954 27.8128 90.8969 27.7876C91.0983 27.7498 91.2746 27.7057 91.4257 27.6554C91.539 27.7939 91.6335 27.9513 91.709 28.1276C91.7972 28.2912 91.8412 28.4927 91.8412 28.732C91.8412 29.2104 91.6586 29.6008 91.2935 29.903C90.9409 30.2052 90.3113 30.3563 89.4048 30.3563C88.2967 30.3563 87.4405 30.1044 86.8361 29.6008C86.2443 29.0971 85.9484 28.2787 85.9484 27.1454V19.0616C86.0869 19.0238 86.282 18.986 86.5339 18.9483C86.7983 18.8979 87.0753 18.8727 87.3649 18.8727C87.9189 18.8727 88.3471 18.9735 88.6493 19.1749C88.964 19.3638 89.1214 19.773 89.1214 20.4026V21.6114H91.5957C91.6712 21.7499 91.7405 21.9262 91.8035 22.1402C91.879 22.3417 91.9168 22.5684 91.9168 22.8202C91.9168 23.2609 91.816 23.582 91.6146 23.7835C91.4257 23.9723 91.1676 24.0668 90.8402 24.0668H89.1214V26.9188Z" fill="white"/>
<path d="M98.0059 23.9345C98.5347 23.9345 98.9377 23.8149 99.2147 23.5757C99.5043 23.3239 99.6491 22.9461 99.6491 22.4424C99.6491 21.964 99.498 21.5988 99.1958 21.347C98.9062 21.0826 98.4781 20.9503 97.9115 20.9503C97.71 20.9503 97.54 20.9566 97.4015 20.9692C97.2756 20.9692 97.1434 20.9818 97.0049 21.007V23.9345H98.0059ZM97.0238 29.9974C96.8852 30.0352 96.6649 30.073 96.3627 30.1107C96.0731 30.1485 95.7835 30.1674 95.4939 30.1674C95.2043 30.1674 94.9461 30.1422 94.7195 30.0918C94.5054 30.0541 94.3229 29.9785 94.1718 29.8652C94.0207 29.7519 93.9073 29.5945 93.8318 29.393C93.7562 29.1915 93.7185 28.9271 93.7185 28.5997V19.7038C93.7185 19.4393 93.7877 19.2379 93.9262 19.0994C94.0773 18.9483 94.2788 18.8287 94.5306 18.7405C94.9587 18.5894 95.4435 18.4824 95.985 18.4194C96.539 18.3439 97.093 18.3061 97.647 18.3061C99.3847 18.3061 100.713 18.6776 101.632 19.4205C102.551 20.1634 103.011 21.1707 103.011 22.4424C103.011 23.0594 102.91 23.6198 102.709 24.1234C102.52 24.6145 102.23 25.0426 101.84 25.4078C101.462 25.7603 100.978 26.0373 100.386 26.2388C99.8065 26.4277 99.1329 26.5221 98.3648 26.5221H97.0238V29.9974Z" fill="white"/>
<path d="M104.448 21.0259C104.573 20.9881 104.769 20.9503 105.033 20.9126C105.31 20.8748 105.593 20.8559 105.883 20.8559C106.16 20.8559 106.406 20.8748 106.62 20.9126C106.846 20.9503 107.035 21.0259 107.186 21.1392C107.337 21.2525 107.451 21.4099 107.526 21.6114C107.614 21.8003 107.658 22.0521 107.658 22.3669V26.4277C107.658 26.9439 107.784 27.3154 108.036 27.542C108.288 27.7561 108.653 27.8631 109.132 27.8631C109.421 27.8631 109.654 27.8379 109.83 27.7876C110.019 27.7372 110.164 27.6868 110.265 27.6365V21.0259C110.391 20.9881 110.586 20.9503 110.85 20.9126C111.127 20.8748 111.411 20.8559 111.7 20.8559C111.977 20.8559 112.223 20.8748 112.437 20.9126C112.664 20.9503 112.852 21.0259 113.004 21.1392C113.155 21.2525 113.268 21.4099 113.344 21.6114C113.432 21.8003 113.476 22.0521 113.476 22.3669V28.1087C113.476 28.7382 113.211 29.2104 112.682 29.5252C112.242 29.8022 111.713 30.01 111.096 30.1485C110.492 30.2996 109.83 30.3752 109.113 30.3752C108.433 30.3752 107.803 30.2996 107.224 30.1485C106.657 29.9974 106.166 29.7645 105.751 29.4497C105.335 29.1349 105.014 28.732 104.788 28.2409C104.561 27.7372 104.448 27.1328 104.448 26.4277V21.0259Z" fill="white"/>
<path d="M118.708 30.0541C118.57 30.0793 118.362 30.1107 118.085 30.1485C117.82 30.1989 117.55 30.2241 117.273 30.2241C116.996 30.2241 116.744 30.2052 116.517 30.1674C116.303 30.1296 116.121 30.0541 115.969 29.9407C115.818 29.8274 115.699 29.6763 115.611 29.4874C115.535 29.286 115.497 29.0279 115.497 28.7131V17.7584C115.636 17.7332 115.837 17.7017 116.102 17.6639C116.379 17.6136 116.656 17.5884 116.933 17.5884C117.21 17.5884 117.455 17.6073 117.669 17.645C117.896 17.6828 118.085 17.7584 118.236 17.8717C118.387 17.985 118.5 18.1424 118.576 18.3439C118.664 18.5327 118.708 18.7846 118.708 19.0994V30.0541Z" fill="white"/>
<path d="M128.478 27.3343C128.478 28.2912 128.119 29.0404 127.402 29.5819C126.684 30.1233 125.626 30.394 124.228 30.394C123.7 30.394 123.208 30.3563 122.755 30.2807C122.302 30.2052 121.912 30.0918 121.584 29.9407C121.269 29.7771 121.018 29.5756 120.829 29.3364C120.652 29.0971 120.564 28.8138 120.564 28.4864C120.564 28.1842 120.627 27.9324 120.753 27.7309C120.879 27.5169 121.03 27.3406 121.206 27.2021C121.572 27.4035 121.987 27.5861 122.453 27.7498C122.931 27.9009 123.479 27.9765 124.096 27.9765C124.487 27.9765 124.782 27.9198 124.984 27.8065C125.198 27.6931 125.305 27.542 125.305 27.3532C125.305 27.1769 125.229 27.0384 125.078 26.9376C124.927 26.8369 124.675 26.7551 124.323 26.6921L123.756 26.5788C122.661 26.3647 121.842 26.0311 121.301 25.5778C120.772 25.1119 120.508 24.4508 120.508 23.5946C120.508 23.1287 120.608 22.7069 120.81 22.3291C121.011 21.9514 121.295 21.6366 121.66 21.3847C122.025 21.1329 122.459 20.9377 122.963 20.7992C123.479 20.6607 124.046 20.5915 124.663 20.5915C125.129 20.5915 125.563 20.6293 125.966 20.7048C126.382 20.7678 126.74 20.8685 127.043 21.007C127.345 21.1455 127.584 21.3281 127.76 21.5547C127.937 21.7688 128.025 22.0269 128.025 22.3291C128.025 22.6187 127.968 22.8706 127.855 23.0846C127.754 23.2861 127.622 23.4561 127.458 23.5946C127.357 23.5316 127.206 23.4687 127.005 23.4057C126.803 23.3302 126.583 23.2672 126.344 23.2168C126.105 23.1539 125.859 23.1035 125.607 23.0657C125.368 23.028 125.148 23.0091 124.946 23.0091C124.531 23.0091 124.21 23.0594 123.983 23.1602C123.756 23.2483 123.643 23.3931 123.643 23.5946C123.643 23.7331 123.706 23.8464 123.832 23.9345C123.958 24.0227 124.197 24.1045 124.549 24.1801L125.135 24.3123C126.344 24.5893 127.2 24.9734 127.704 25.4644C128.22 25.9429 128.478 26.5662 128.478 27.3343Z" fill="white"/>
<path d="M134.977 30.3752C134.234 30.3752 133.541 30.2744 132.899 30.073C132.269 29.8589 131.715 29.5441 131.237 29.1286C130.771 28.7131 130.4 28.1905 130.123 27.5609C129.858 26.9314 129.726 26.1947 129.726 25.3511C129.726 24.5201 129.858 23.8086 130.123 23.2168C130.4 22.6124 130.758 22.1214 131.199 21.7436C131.64 21.3533 132.144 21.07 132.71 20.8937C133.277 20.7048 133.856 20.6104 134.448 20.6104C135.115 20.6104 135.72 20.7111 136.261 20.9126C136.815 21.114 137.287 21.391 137.678 21.7436C138.081 22.0962 138.389 22.518 138.603 23.0091C138.83 23.5001 138.943 24.0353 138.943 24.6145C138.943 25.0426 138.823 25.37 138.584 25.5966C138.345 25.8233 138.011 25.9681 137.583 26.0311L132.918 26.7299C133.056 27.1454 133.34 27.4602 133.768 27.6743C134.196 27.8757 134.687 27.9765 135.241 27.9765C135.757 27.9765 136.242 27.9135 136.695 27.7876C137.161 27.6491 137.539 27.4917 137.829 27.3154C138.03 27.4413 138.2 27.6176 138.339 27.8442C138.477 28.0709 138.546 28.3101 138.546 28.562C138.546 29.1286 138.282 29.5504 137.753 29.8274C137.35 30.0415 136.897 30.1863 136.393 30.2618C135.89 30.3374 135.417 30.3752 134.977 30.3752ZM134.448 22.9524C134.146 22.9524 133.881 23.0028 133.655 23.1035C133.441 23.2042 133.264 23.3364 133.126 23.5001C132.987 23.6512 132.88 23.8275 132.805 24.029C132.742 24.2179 132.704 24.413 132.691 24.6145L135.921 24.0856C135.883 23.8338 135.745 23.582 135.506 23.3302C135.266 23.0783 134.914 22.9524 134.448 22.9524Z" fill="white"/>
</svg>
