<svg width="20" height="20" viewBox="0 0 20 20" fill="none" xmlns="http://www.w3.org/2000/svg">
<path fill-rule="evenodd" clip-rule="evenodd" d="M10.0003 2.29163C7.95595 2.29163 5.9953 3.10375 4.54971 4.54934C3.10412 5.99494 2.29199 7.95558 2.29199 9.99996C2.29199 12.0443 3.10412 14.005 4.54971 15.4506C5.9953 16.8962 7.95595 17.7083 10.0003 17.7083C12.0447 17.7083 14.0053 16.8962 15.4509 15.4506C16.8965 14.005 17.7087 12.0443 17.7087 9.99996C17.7087 7.95558 16.8965 5.99494 15.4509 4.54934C14.0053 3.10375 12.0447 2.29163 10.0003 2.29163ZM1.04199 9.99996C1.04199 5.05246 5.05283 1.04163 10.0003 1.04163C14.9478 1.04163 18.9587 5.05246 18.9587 9.99996C18.9587 14.9475 14.9478 18.9583 10.0003 18.9583C5.05283 18.9583 1.04199 14.9475 1.04199 9.99996ZM9.30199 5.20829H11.2503C11.9686 5.20829 12.6575 5.49363 13.1654 6.00154C13.6733 6.50946 13.9587 7.19833 13.9587 7.91663C13.9587 8.63492 13.6733 9.3238 13.1654 9.83171C12.6575 10.3396 11.9686 10.625 11.2503 10.625H8.95866V11.0416H10.0003C10.1661 11.0416 10.3251 11.1075 10.4423 11.2247C10.5595 11.3419 10.6253 11.5009 10.6253 11.6666C10.6253 11.8324 10.5595 11.9914 10.4423 12.1086C10.3251 12.2258 10.1661 12.2916 10.0003 12.2916H8.95866V14.1666C8.95866 14.3324 8.89281 14.4914 8.7756 14.6086C8.65839 14.7258 8.49942 14.7916 8.33366 14.7916C8.1679 14.7916 8.00893 14.7258 7.89172 14.6086C7.77451 14.4914 7.70866 14.3324 7.70866 14.1666V12.2916H7.50033C7.33457 12.2916 7.17559 12.2258 7.05838 12.1086C6.94117 11.9914 6.87533 11.8324 6.87533 11.6666C6.87533 11.5009 6.94117 11.3419 7.05838 11.2247C7.17559 11.1075 7.33457 11.0416 7.50033 11.0416H7.70866V10.625H7.50033C7.33457 10.625 7.17559 10.5591 7.05838 10.4419C6.94117 10.3247 6.87533 10.1657 6.87533 9.99996C6.87533 9.8342 6.94117 9.67523 7.05838 9.55802C7.17559 9.44081 7.33457 9.37496 7.50033 9.37496H7.70866V6.80163C7.70866 6.67996 7.70866 6.55413 7.72699 6.43829C7.77525 6.1343 7.91845 5.85337 8.13609 5.63573C8.35374 5.41808 8.63467 5.27488 8.93866 5.22663C9.05449 5.20829 9.18116 5.20829 9.30199 5.20829ZM8.95783 9.37496H11.2495C11.6363 9.37496 12.0072 9.22131 12.2807 8.94782C12.5542 8.67433 12.7078 8.3034 12.7078 7.91663C12.7078 7.52985 12.5542 7.15892 12.2807 6.88543C12.0072 6.61194 11.6363 6.45829 11.2495 6.45829H9.33283L9.13282 6.46079C9.08971 6.46772 9.04986 6.48802 9.0189 6.51882C8.98795 6.54962 8.96746 6.58938 8.96033 6.63246L8.95866 6.66829L8.95783 6.83329V9.37496Z" fill="black"/>
</svg>
